<?xml version="1.0"?>
<svg xmlns="http://www.w3.org/2000/svg" xmlns:xlink="http://www.w3.org/1999/xlink" version="1.1" id="Layer_1" x="0px" y="0px" viewBox="0 0 512 512" style="enable-background:new 0 0 512 512;" xml:space="preserve" width="512px" height="512px" class=""><g><circle style="fill:#FC6F58;" cx="256" cy="256" r="256" data-original="#FC6F58" class=""/><path style="fill:#F1543F;" d="M437.019,437.019c47.32-47.319,72.227-108.556,74.752-170.536L393.176,147.204L189.916,306.226  l-71.789,57.82l147.746,147.746C328.061,509.407,389.544,484.495,437.019,437.019z" data-original="#F1543F" class=""/><path style="fill:#E6F3FF;" d="M381.128,369.778H130.874c-9.442,0-17.094-7.654-17.094-17.096V159.318  c0-9.442,7.654-17.094,17.094-17.094h250.254c9.442,0,17.094,7.654,17.094,17.094v193.365  C398.222,362.124,390.568,369.778,381.128,369.778z" data-original="#E6F3FF"/><path style="fill:#ECF6FF" d="M381.128,142.222H255.426v227.556h125.702c9.442,0,17.096-7.654,17.096-17.096V159.318  C398.222,149.876,390.568,142.222,381.128,142.222z" data-original="#CFDBE6" class="" data-old_color="#CFDBE6"/><path style="fill:#FFD15D;" d="M398.222,159.318c0-9.442-7.654-17.096-17.096-17.096H130.874c-9.442,0-17.096,7.654-17.096,17.096  v7.901h284.444V159.318z" data-original="#FFD15D"/><path style="fill:#FFD15D" d="M398.222,159.318c0-9.442-7.654-17.096-17.096-17.096H255.424v24.997h142.798V159.318z" data-original="#F9B54C" class="active-path" data-old_color="#F9B54C"/><path style="fill:#FFD15D;" d="M113.778,350.815v1.867c0,9.442,7.654,17.096,17.096,17.096h250.254  c9.442,0,17.096-7.654,17.096-17.096v-1.867H113.778z" data-original="#FFD15D"/><path style="fill:#FFD15D" d="M255.426,350.815v18.963h125.702c9.442,0,17.096-7.654,17.096-17.096v-1.867H255.426z" data-original="#F9B54C" class="active-path" data-old_color="#F9B54C"/><g>
	<circle style="fill:#F1543F;" cx="136.826" cy="156.444" r="6.034" data-original="#F1543F" class=""/>
	<circle style="fill:#F1543F;" cx="161.185" cy="156.444" r="6.034" data-original="#F1543F" class=""/>
	<circle style="fill:#F1543F;" cx="185.527" cy="156.444" r="6.034" data-original="#F1543F" class=""/>
</g><path style="fill:#324A5E;" d="M356.309,228.843l-0.25-0.834c-2.543-8.492-8.239-15.482-16.039-19.69  c-7.802-4.21-16.777-5.127-25.264-2.582l-34.688,10.385c-8.492,2.543-15.482,8.239-19.69,16.039  c-2.877,5.335-4.177,11.221-3.922,17.122l-12.75,3.817c-3.031-5.072-7.349-9.273-12.685-12.152  c-7.802-4.206-16.775-5.125-25.262-2.581l-34.688,10.383c-8.492,2.543-15.484,8.239-19.692,16.039  c-4.205,7.801-5.123,16.774-2.581,25.262l0.25,0.834c2.543,8.492,8.239,15.482,16.039,19.69c4.91,2.648,10.281,3.991,15.705,3.991  c3.196,0,6.411-0.467,9.559-1.408l34.688-10.385c8.492-2.543,15.482-8.239,19.69-16.039c2.877-5.336,4.177-11.221,3.922-17.122  l12.75-3.817c3.031,5.072,7.349,9.273,12.684,12.152c4.908,2.646,10.28,3.989,15.701,3.989c3.196,0,6.413-0.467,9.561-1.408  l34.688-10.383c8.492-2.543,15.484-8.239,19.692-16.039C357.933,246.305,358.85,237.332,356.309,228.843z M229.554,278.552  c-2.02,3.75-5.38,6.487-9.459,7.708l-34.688,10.385c-4.082,1.222-8.392,0.783-12.138-1.241c-3.749-2.02-6.487-5.38-7.708-9.457  l-0.25-0.834c-1.222-4.081-0.781-8.39,1.239-12.138c2.022-3.749,5.382-6.487,9.461-7.708l34.688-10.383  c1.514-0.453,3.058-0.678,4.594-0.678c2.607,0,5.187,0.645,7.546,1.915c1.167,0.629,2.222,1.402,3.179,2.272l-16.812,5.032  c-4.561,1.365-7.151,6.168-5.785,10.73c1.117,3.737,4.544,6.149,8.254,6.149c0.819,0,1.651-0.117,2.476-0.364l16.812-5.032  C230.641,276.161,230.183,277.385,229.554,278.552z M338.554,245.922c-2.022,3.749-5.382,6.487-9.461,7.708l-34.688,10.383  c-4.082,1.221-8.39,0.779-12.14-1.239c-1.167-0.629-2.222-1.402-3.179-2.272l16.812-5.032c4.561-1.365,7.151-6.168,5.785-10.73  s-6.172-7.149-10.73-5.785l-16.812,5.032c0.321-1.252,0.777-2.477,1.407-3.644c2.02-3.749,5.38-6.487,9.459-7.708l34.688-10.385  c1.514-0.453,3.056-0.678,4.592-0.678c2.607,0,5.189,0.645,7.546,1.917c3.749,2.02,6.487,5.38,7.708,9.457l0.25,0.834  C341.014,237.865,340.575,242.174,338.554,245.922z" data-original="#324A5E" class=""/><path style="fill:#2B3B4E" d="M356.309,228.843l-0.25-0.834c-2.543-8.492-8.239-15.482-16.039-19.69  c-7.802-4.21-16.777-5.127-25.264-2.582l-34.688,10.385c-8.492,2.543-15.482,8.239-19.69,16.039  c-2.877,5.335-4.177,11.221-3.922,17.122l-1.029,0.309v17.994l5.973-1.788c3.031,5.072,7.349,9.273,12.685,12.152  c4.908,2.646,10.28,3.989,15.701,3.989c3.196,0,6.413-0.467,9.561-1.408l34.688-10.383c8.492-2.543,15.484-8.239,19.692-16.039  C357.933,246.305,358.85,237.332,356.309,228.843z M338.554,245.922c-2.022,3.749-5.382,6.487-9.461,7.708l-34.688,10.383  c-4.082,1.221-8.39,0.779-12.14-1.239c-1.167-0.629-2.222-1.402-3.179-2.272l16.812-5.032c4.561-1.365,7.151-6.168,5.785-10.73  s-6.172-7.149-10.73-5.785l-16.812,5.032c0.321-1.252,0.777-2.477,1.407-3.644c2.02-3.749,5.38-6.487,9.459-7.708l34.688-10.385  c1.514-0.453,3.056-0.678,4.592-0.678c2.607,0,5.189,0.645,7.546,1.917c3.749,2.02,6.487,5.38,7.708,9.457l0.25,0.834  C341.014,237.865,340.575,242.174,338.554,245.922z" data-original="#2B3B4E" class="" data-old_color="#2B3B4E"/></g> </svg>
