<?xml version="1.0"?>
<svg xmlns="http://www.w3.org/2000/svg" xmlns:xlink="http://www.w3.org/1999/xlink" version="1.1" id="Capa_1" x="0px" y="0px" viewBox="0 0 230.17 230.17" style="enable-background:new 0 0 230.17 230.17;" xml:space="preserve" width="512px" height="512px" class=""><g><g>
	<path d="M115.251,138.757L222.447,35.496c-2.427-1.443-5.252-2.411-8.28-2.411H16.5c-3.943,0-7.556,1.531-10.37,3.866   L115.251,138.757z M85.662,78.747l26.786-32.459c1.28-1.543,4.484-1.497,5.765,0.046l26.79,32.389   c1.171,1.412-0.295,3.361-2.64,3.361H131v26.838c0,2.299-2.763,4.162-6.071,4.162h-19.192c-3.307,0-6.737-1.864-6.737-4.162V82.085   H88.302C85.957,82.085,84.492,80.159,85.662,78.747z" data-original="#000000" class="active-path" data-old_color="#000000" fill="#FFFDFD"/>
	<path d="M230,49.585c0-0.263,0.181-0.519,0.169-0.779l-70.24,67.68l70.156,65.518c0.041-0.468-0.085-0.939-0.085-1.418V49.585z" data-original="#000000" class="active-path" data-old_color="#000000" fill="#FFFDFD"/>
	<path d="M0,52.1v128.485c0,1.475,0.339,2.897,0.707,4.256l69.738-67.156L0,52.1z" data-original="#000000" class="active-path" data-old_color="#000000" fill="#FFFDFD"/>
	<path d="M149.207,126.901l-28.674,27.588c-1.451,1.396-3.325,2.096-5.2,2.096c-1.836,0-3.672-0.67-5.113-2.013l-28.596-26.647   L11.01,195.989c1.717,0.617,3.56,1.096,5.49,1.096h197.667c2.866,0,5.554-0.873,7.891-2.175L149.207,126.901z" data-original="#000000" class="active-path" data-old_color="#000000" fill="#FFFDFD"/>
</g></g> </svg>
